# xmcd
#
# Track frame offsets:
#	150
#	18635
#	32055
#	48145
#	58480
#	76200
#	85350
#	102652
#	114450
#	130425
#	141895
#	157545
#	176130
#	187245
#	202325
#	211995
#
# Disc length: 3023 seconds
#
# Revision: 0
# Processed by: cddbd v1.4PL0 Copyright (c) Steve Scherf et al.
# Submitted via: dBpowerAMP V4.0
#
DISCID=ee0bcd10
DTITLE=Juancho y su Mariachi Gran Gala - El jinete
DYEAR=1900
DGENRE=Other
TTITLE0=El jinete
TTITLE1=La banda del coche rojo
TTITLE2=Lagrimas de novia
TTITLE3=Torito bravo
TTITLE4=Entierrenme cantando
TTITLE5=¡Natalia esta buena!!
TTITLE6=¡Que viva mi general!
TTITLE7=Yo vi llorar a Dios
TTITLE8=El tiempo que te quede libre
TTITLE9=Gaviotas y golondrinas
TTITLE10=Que no me vean llorando
TTITLE11=Huapango torero
TTITLE12=Eres libre
TTITLE13=Dame la mano y buena suerte
TTITLE14=Demuestramelo
TTITLE15=Hace un año
EXTD=
EXTT0=
EXTT1=
EXTT2=
EXTT3=
EXTT4=
EXTT5=
EXTT6=
EXTT7=
EXTT8=
EXTT9=
EXTT10=
EXTT11=
EXTT12=
EXTT13=
EXTT14=
EXTT15=
PLAYORDER=
